<svg width="831" height="384" viewBox="0 0 831 384" fill="none" xmlns="http://www.w3.org/2000/svg">
<path d="M523.722 179.715L685.289 23.0702C701.491 8.05306 723.126 -0.226642 745.559 0.00472147C767.992 0.236085 789.439 8.9601 805.306 24.3079C821.174 39.6558 830.199 60.4066 830.449 82.1157C830.699 103.825 822.154 124.765 806.645 140.452L578.475 361.26C571.249 368.272 562.664 373.836 553.212 377.632C543.76 381.429 533.626 383.383 523.393 383.383C513.159 383.383 503.026 381.429 493.574 377.632C484.122 373.836 475.536 368.272 468.31 361.26L350.007 246.773L471.482 129.623" fill="#0B51FF"/>
<path d="M471.475 129.658L350.419 246.809L229.363 129.658L287.766 73.1387C303.333 58.0317 324.152 49.0728 346.17 48.0063H354.667C356.343 48.0063 358.078 48.0064 359.694 48.4697C360.837 48.5477 361.976 48.6827 363.105 48.8748V48.8748L366.935 49.512H367.712L370.645 50.149C371.257 50.2491 371.858 50.4043 372.44 50.6123L374.893 51.2492C375.39 51.3442 375.873 51.5 376.329 51.7126C377.103 51.8913 377.863 52.1235 378.603 52.4075C379.339 52.6069 380.06 52.8585 380.758 53.1604L382.433 53.7393L384.587 54.6081L386.083 55.245L388.716 56.4033L389.853 56.9822L392.007 58.0245L394.162 59.1828L395.598 59.9936L397.513 61.1515C398.202 61.5287 398.862 61.9547 399.487 62.4257L402.479 64.4524L405.471 66.6529C408.017 68.6319 410.454 70.739 412.772 72.9652L471.475 129.658Z" fill="#0153B8"/>
<path d="M287.651 73.1113L229.247 129.631L350.303 246.781L232.12 361.268C224.893 368.28 216.308 373.844 206.856 377.64C197.404 381.436 187.271 383.39 177.037 383.39C166.803 383.39 156.67 381.436 147.218 377.64C137.766 373.844 129.181 368.28 121.954 361.268L25.1335 267.571C17.1652 259.859 10.8444 250.705 6.53202 240.63C2.21961 230.554 0 219.756 0 208.851C0 197.945 2.21961 187.147 6.53202 177.072C10.8444 166.996 17.1652 157.842 25.1335 150.131C33.1018 142.42 42.5617 136.303 52.9727 132.129C63.3838 127.956 74.5422 125.808 85.8111 125.808C97.0799 125.808 108.238 127.956 118.65 132.129C129.061 136.303 138.52 142.42 146.489 150.131L177.007 179.722L287.172 73.1113" fill="#14E0B8"/>
</svg>
