<svg width="141" height="32" viewBox="0 0 141 32" fill="none" xmlns="http://www.w3.org/2000/svg">
<path d="M36.7408 0.988525H31.8821L26.3674 17.9605L20.8527 0.988525H16.1607L10.5793 18.1731L4.96455 0.988525H0.0724792L8.36305 24.6878H12.7585L18.5067 8.19944L24.2363 24.6878H28.4984L36.7408 0.988525Z" fill="url(#paint0_linear_1_666)"/>
<path d="M43.5114 6.78149H39.1049V24.6879H43.5114V6.78149Z" fill="url(#paint1_linear_1_666)"/>
<path d="M47.1659 22.6567L48.8188 20.0296C50.3409 20.9072 52.079 21.3511 53.8406 21.312C55.4602 21.312 56.5609 20.6378 56.5609 19.5825C56.5609 18.5273 55.3305 17.9484 53.596 17.4977L52.1358 17.1313C49.1709 16.3618 47.1807 15.2406 47.1807 12.5182C47.1807 9.09229 49.901 6.81689 54.0482 6.81689C56.6721 6.81689 58.9069 7.36284 60.6228 8.51337L58.7697 11.364C57.4103 10.6163 55.878 10.23 54.3224 10.2428C52.7362 10.2428 51.6318 10.8217 51.6318 11.8147C51.6318 12.8077 52.7436 13.317 54.2557 13.7017L55.7159 14.1194C58.6808 14.8889 61.0601 16.2336 61.0601 19.2748C61.0601 22.5431 58.1434 24.7196 53.7702 24.7196C51.124 24.7049 48.7558 24.0344 47.1659 22.6567Z" fill="url(#paint2_linear_1_666)"/>
<path d="M80.9504 17.3082H68.32C68.6424 19.7411 69.9395 21.28 72.4967 21.28C73.3204 21.2814 74.1335 21.0973 74.8746 20.7418C75.6156 20.3863 76.265 19.8687 76.7736 19.2281L80.1758 20.9283C78.6193 23.233 75.8656 24.7059 72.5634 24.7059C67.2192 24.7059 63.6688 21.1848 63.6688 15.8682C63.6688 10.4234 67.134 6.80322 72.3818 6.80322C77.6297 6.80322 81.0949 10.2621 81.0949 15.4834C81.0834 16.094 81.0351 16.7033 80.9504 17.3082ZM68.32 14.3769H76.44C76.1139 11.7497 74.7204 10.2438 72.3633 10.2438C70.0062 10.2438 68.6757 11.7351 68.32 14.3622V14.3769Z" fill="url(#paint3_linear_1_666)"/>
<path d="M88.8898 0.955078H84.4832V24.6873H88.8898V0.955078Z" fill="url(#paint4_linear_1_666)"/>
<path d="M109.493 6.79248V22.7532C109.493 28.198 105.702 31.7522 99.9686 31.7522C97.2149 31.7522 94.78 31.0194 93.0048 29.5757L93.9758 26.1462C95.6687 27.4136 97.7497 28.0693 99.8722 28.0038C102.982 28.0038 105.087 25.9226 105.087 22.7202V22.4015C104.436 23.1541 103.621 23.7521 102.705 24.1511C101.788 24.55 100.792 24.7398 99.7907 24.7062C95.84 24.7062 93.153 22.0167 93.153 17.9496V6.79248H97.567V17.2754C97.567 19.4739 99.0902 20.9395 101.358 20.9395C103.627 20.9395 105.064 19.4739 105.064 17.2754V6.79248H109.493Z" fill="url(#paint5_linear_1_666)"/>
<path d="M113.156 22.6567L114.805 20.0296C116.327 20.9067 118.065 21.3505 119.827 21.312C121.446 21.312 122.547 20.6378 122.547 19.5825C122.547 18.5273 121.316 17.9484 119.582 17.4977L118.126 17.1313C115.161 16.3618 113.17 15.2406 113.17 12.5182C113.17 9.09229 115.891 6.81689 120.034 6.81689C122.658 6.81689 124.897 7.36284 126.613 8.51337L124.759 11.364C123.4 10.6165 121.868 10.2302 120.312 10.2428C118.726 10.2428 117.625 10.8217 117.625 11.8147C117.625 12.8077 118.737 13.317 120.249 13.7017L121.706 14.1194C124.671 14.8889 127.05 16.2336 127.05 19.2748C127.05 22.5431 124.137 24.7196 119.764 24.7196C117.106 24.7049 114.742 24.0344 113.156 22.6567Z" fill="url(#paint6_linear_1_666)"/>
<path d="M140.266 20.3937V23.9186C138.842 24.4649 137.325 24.7361 135.797 24.7174C132.624 24.7174 130.453 22.5409 130.453 19.2725V0.974121H134.859V6.87695H140.007V10.4311H134.859V18.3712C134.859 19.9431 135.83 20.9653 137.224 20.9653C138.267 20.981 139.302 20.7865 140.266 20.3937Z" fill="url(#paint7_linear_1_666)"/>
<defs>
<linearGradient id="paint0_linear_1_666" x1="18.4066" y1="0.988525" x2="18.4066" y2="24.6878" gradientUnits="userSpaceOnUse">
<stop stop-color="#0693FF"/>
<stop offset="1" stop-color="#0A5AFF"/>
</linearGradient>
<linearGradient id="paint1_linear_1_666" x1="41.3081" y1="6.78149" x2="41.3081" y2="24.6879" gradientUnits="userSpaceOnUse">
<stop stop-color="#0693FF"/>
<stop offset="1" stop-color="#0A5AFF"/>
</linearGradient>
<linearGradient id="paint2_linear_1_666" x1="54.113" y1="6.81689" x2="54.113" y2="24.7196" gradientUnits="userSpaceOnUse">
<stop stop-color="#0693FF"/>
<stop offset="1" stop-color="#0A5AFF"/>
</linearGradient>
<linearGradient id="paint3_linear_1_666" x1="72.3818" y1="6.80322" x2="72.3818" y2="24.7059" gradientUnits="userSpaceOnUse">
<stop stop-color="#0693FF"/>
<stop offset="1" stop-color="#0A5AFF"/>
</linearGradient>
<linearGradient id="paint4_linear_1_666" x1="86.6865" y1="0.955078" x2="86.6865" y2="24.6873" gradientUnits="userSpaceOnUse">
<stop stop-color="#11E1B8"/>
<stop offset="1" stop-color="#0FCDA8"/>
</linearGradient>
<linearGradient id="paint5_linear_1_666" x1="101.249" y1="6.79248" x2="101.249" y2="31.7522" gradientUnits="userSpaceOnUse">
<stop stop-color="#11E1B8"/>
<stop offset="1" stop-color="#0FCDA8"/>
</linearGradient>
<linearGradient id="paint6_linear_1_666" x1="120.103" y1="6.81689" x2="120.103" y2="24.7196" gradientUnits="userSpaceOnUse">
<stop stop-color="#11E1B8"/>
<stop offset="1" stop-color="#0FCDA8"/>
</linearGradient>
<linearGradient id="paint7_linear_1_666" x1="135.36" y1="0.974121" x2="135.36" y2="24.7183" gradientUnits="userSpaceOnUse">
<stop stop-color="#11E1B8"/>
<stop offset="1" stop-color="#0FCDA8"/>
</linearGradient>
</defs>
</svg>
