<svg width="16" height="16" viewBox="0 0 16 16" fill="none" xmlns="http://www.w3.org/2000/svg">
<path d="M15.1021 13.9518L8.88557 7.73535L15.1021 1.51888C15.42 1.20097 15.42 0.685579 15.1021 0.367676C14.7841 0.0497717 14.2688 0.0497717 13.9509 0.367675L7.73438 6.58415L1.5179 0.367675C1.2 0.0497717 0.684603 0.0497717 0.366699 0.367676C0.0487955 0.685579 0.0487955 1.20097 0.366699 1.51888L6.58318 7.73535L0.366699 13.9518C0.0487955 14.2697 0.0487955 14.7851 0.366699 15.103C0.684603 15.4209 1.2 15.4209 1.5179 15.103L7.73438 8.88655L13.9509 15.103C14.2688 15.4209 14.7841 15.4209 15.1021 15.103C15.42 14.7851 15.42 14.2697 15.1021 13.9518Z" fill="#516177"/>
</svg>
