<svg width="33" height="26" viewBox="0 0 33 26" fill="none" xmlns="http://www.w3.org/2000/svg">
<path d="M30.7385 14.3365H1.33645C0.598729 14.3365 0 13.7378 0 13C0 12.2623 0.598729 11.6636 1.33645 11.6636H30.7385C31.4762 11.6636 32.0749 12.2623 32.0749 13C32.0749 13.7378 31.4762 14.3365 30.7385 14.3365Z" fill="#2E293B"/>
<path d="M30.7385 2.67291H1.33645C0.598729 2.67291 0 2.07418 0 1.33645C0 0.598729 0.598729 0 1.33645 0H30.7385C31.4762 0 32.0749 0.598729 32.0749 1.33645C32.0749 2.07418 31.4762 2.67291 30.7385 2.67291Z" fill="#2E293B"/>
<path d="M30.7385 26.0001H1.33645C0.598729 26.0001 0 25.4013 0 24.6636C0 23.9259 0.598729 23.3271 1.33645 23.3271H30.7385C31.4762 23.3271 32.0749 23.9259 32.0749 24.6636C32.0749 25.4013 31.4762 26.0001 30.7385 26.0001Z" fill="#2E293B"/>
</svg>
